<?xml version="1.0" standalone="no"?>
<!DOCTYPE svg PUBLIC "-//W3C//DTD SVG 20010904//EN"
 "http://www.w3.org/TR/2001/REC-SVG-20010904/DTD/svg10.dtd">
<svg version="1.0" xmlns="http://www.w3.org/2000/svg"
 width="500.000000pt" height="500.000000pt" viewBox="0 0 500.000000 500.000000"
 preserveAspectRatio="xMidYMid meet">
<metadata>
Created by potrace 1.11, written by Peter Selinger 2001-2013
</metadata>
<g transform="translate(0.000000,500.000000) scale(0.100000,-0.100000)"
fill="#000000" stroke="none">
<path d="M2440 2570 l0 -1250 200 0 c169 0 200 2 200 15 0 8 9 59 21 113 l21
99 77 -76 c85 -85 180 -139 298 -168 100 -25 322 -23 424 5 287 77 507 304
591 607 30 108 33 404 5 503 -91 331 -305 555 -602 632 -104 27 -251 36 -340
21 -164 -28 -268 -82 -386 -202 l-69 -70 0 511 0 510 -220 0 -220 0 0 -1250z
m1055 105 c165 -43 295 -177 340 -350 34 -131 12 -315 -50 -421 -91 -154 -233
-234 -419 -234 -154 0 -267 47 -359 149 -89 100 -127 207 -127 361 0 155 38
261 128 361 113 126 310 180 487 134z"/>
<path d="M1375 3069 c-98 -14 -240 -63 -317 -110 -166 -100 -287 -276 -311
-451 l-6 -38 220 0 c196 0 219 2 219 16 0 33 46 107 88 145 68 59 138 82 257
83 75 1 113 -4 151 -18 131 -49 194 -135 202 -277 l5 -79 -189 0 c-399 -1
-558 -22 -714 -97 -370 -178 -375 -705 -8 -886 201 -100 498 -103 684 -9 72
37 172 126 215 192 18 28 34 49 35 47 2 -2 10 -48 19 -102 8 -55 17 -115 20
-132 l6 -33 190 0 190 0 -4 598 c-4 664 -3 654 -74 801 -65 136 -206 251 -380
312 -124 43 -347 60 -498 38z m495 -1022 c0 -33 -33 -133 -64 -195 -44 -87
-110 -156 -184 -190 -52 -25 -68 -27 -177 -27 -110 0 -124 2 -164 25 -120 68
-149 207 -64 301 76 84 131 96 451 98 159 1 202 -2 202 -12z"/>
<path d="M500 810 l0 -40 2000 0 2000 0 0 40 0 40 -2000 0 -2000 0 0 -40z"/>
</g>
</svg>
